<svg width="245" height="59" viewBox="0 0 245 59" fill="none" xmlns="http://www.w3.org/2000/svg">
<g clip-path="url(#clip0_86_55)">
<path d="M69.8484 42.775H86.0194V38.0067H74.7794V15.7422H69.8484V42.775Z" fill="white" fill-opacity="0.8745"/>
<path d="M95.7371 43.3382C97.6951 43.3382 99.4173 42.8876 100.904 41.9865C102.402 41.0729 103.569 39.8151 104.403 38.2133C105.249 36.5988 105.672 34.7403 105.672 32.6378C105.672 30.5477 105.255 28.7018 104.421 27.0998C103.587 25.4854 102.421 24.2213 100.922 23.3077C99.4354 22.3941 97.7072 21.9373 95.7371 21.9373C93.8033 21.9373 92.0931 22.3879 90.6066 23.2889C89.1201 24.19 87.9537 25.4478 87.1076 27.0623C86.2617 28.6641 85.8386 30.5226 85.8386 32.6378C85.8386 34.7277 86.2496 36.58 87.0715 38.1944C87.9053 39.7964 89.0656 41.0541 90.5522 41.9678C92.0388 42.8814 93.7671 43.3382 95.7371 43.3382ZM95.7371 38.5699C94.2021 38.5699 93.0359 38.0381 92.2382 36.9743C91.4525 35.898 91.0598 34.4525 91.0598 32.6378C91.0598 30.8731 91.4344 29.4463 92.1838 28.3575C92.9452 27.2563 94.1296 26.7055 95.7371 26.7055C97.2962 26.7055 98.4685 27.2437 99.2541 28.32C100.052 29.3963 100.451 30.8355 100.451 32.6378C100.451 34.3774 100.058 35.804 99.2722 36.9179C98.4987 38.0192 97.3203 38.5699 95.7371 38.5699Z" fill="white" fill-opacity="0.8745"/>
<path d="M115.423 43.3382C116.342 43.3382 117.188 43.2255 117.962 43.0003C118.747 42.775 119.46 42.4558 120.101 42.0428V44.0891C120.125 44.84 119.937 45.4657 119.539 45.9663C119.152 46.4795 118.632 46.8612 117.98 47.1115C117.327 47.3744 116.632 47.5058 115.895 47.5058C115.206 47.5058 114.565 47.3493 113.973 47.0364C113.393 46.7236 112.946 46.2668 112.632 45.666L108.063 47.9563C108.812 49.2703 109.882 50.3279 111.272 51.1288C112.662 51.9423 114.191 52.3491 115.859 52.3491C117.297 52.3491 118.632 52.1488 119.865 51.7483C121.098 51.3604 122.137 50.766 122.983 49.9649C123.841 49.164 124.428 48.144 124.742 46.905C124.85 46.4669 124.923 46.0227 124.959 45.5721C125.008 45.1341 125.032 44.6648 125.032 44.1642V22.5004H120.717V23.6269C120.052 23.0886 119.297 22.6756 118.451 22.3879C117.617 22.0874 116.693 21.9373 115.677 21.9373C113.804 21.9373 112.172 22.4004 110.782 23.3264C109.393 24.2526 108.311 25.5228 107.537 27.1374C106.776 28.7392 106.395 30.5728 106.395 32.6378C106.395 34.6652 106.77 36.4861 107.519 38.1006C108.281 39.715 109.338 40.9916 110.692 41.9303C112.045 42.8688 113.623 43.3382 115.423 43.3382ZM116.221 38.7952C115.158 38.7952 114.287 38.5198 113.611 37.9692C112.934 37.4186 112.432 36.6802 112.106 35.754C111.78 34.8153 111.616 33.7766 111.616 32.6378C111.616 31.5113 111.786 30.4852 112.124 29.559C112.462 28.6203 112.982 27.8758 113.683 27.325C114.396 26.7618 115.303 26.4803 116.402 26.4803C117.949 26.4803 119.055 27.0498 119.72 28.1886C120.385 29.3149 120.717 30.798 120.717 32.6378C120.717 34.4774 120.379 35.9667 119.702 37.1056C119.037 38.232 117.877 38.7952 116.221 38.7952Z" fill="white" fill-opacity="0.8745"/>
<path d="M136.744 43.3382C138.702 43.3382 140.424 42.8876 141.911 41.9865C143.409 41.0729 144.576 39.8151 145.409 38.2133C146.255 36.5988 146.678 34.7403 146.678 32.6378C146.678 30.5477 146.262 28.7018 145.427 27.0998C144.594 25.4854 143.428 24.2213 141.929 23.3077C140.442 22.3941 138.714 21.9373 136.744 21.9373C134.81 21.9373 133.1 22.3879 131.613 23.2889C130.127 24.19 128.961 25.4478 128.114 27.0623C127.269 28.6641 126.845 30.5226 126.845 32.6378C126.845 34.7277 127.256 36.58 128.078 38.1944C128.912 39.7964 130.072 41.0541 131.559 41.9678C133.046 42.8814 134.774 43.3382 136.744 43.3382ZM136.744 38.5699C135.209 38.5699 134.043 38.0381 133.245 36.9743C132.459 35.898 132.067 34.4525 132.067 32.6378C132.067 30.8731 132.441 29.4463 133.191 28.3575C133.952 27.2563 135.136 26.7055 136.744 26.7055C138.303 26.7055 139.475 27.2437 140.261 28.32C141.059 29.3963 141.457 30.8355 141.457 32.6378C141.457 34.3774 141.065 35.804 140.279 36.9179C139.506 38.0192 138.327 38.5699 136.744 38.5699Z" fill="white" fill-opacity="0.8745"/>
<path d="M148.852 19.6845H153.783V15.1791H148.852V19.6845ZM148.852 42.775H153.783V22.5004H148.852V42.775Z" fill="white" fill-opacity="0.8745"/>
<path d="M157.007 51.7859H161.973V42.0428C162.614 42.4558 163.321 42.775 164.094 43.0003C164.881 43.2255 165.733 43.3382 166.651 43.3382C168.452 43.3382 170.03 42.8688 171.383 41.9303C172.736 40.9916 173.788 39.715 174.537 38.1006C175.299 36.4861 175.679 34.6652 175.679 32.6378C175.679 30.5728 175.293 28.7392 174.52 27.1374C173.758 25.5228 172.682 24.2526 171.292 23.3264C169.902 22.4004 168.271 21.9373 166.398 21.9373C165.382 21.9373 164.452 22.0874 163.606 22.3879C162.771 22.6756 162.022 23.0886 161.358 23.6269V22.5004H157.007V51.7859ZM165.854 38.7952C164.21 38.7952 163.05 38.232 162.372 37.1056C161.696 35.9667 161.358 34.4774 161.358 32.6378C161.358 30.798 161.69 29.3149 162.355 28.1886C163.032 27.0498 164.137 26.4803 165.673 26.4803C166.772 26.4803 167.673 26.7618 168.373 27.325C169.087 27.8758 169.613 28.6203 169.95 29.559C170.289 30.4852 170.459 31.5113 170.459 32.6378C170.459 33.7766 170.295 34.8153 169.969 35.754C169.643 36.6802 169.141 37.4186 168.465 37.9692C167.788 38.5198 166.918 38.7952 165.854 38.7952Z" fill="white" fill-opacity="0.8745"/>
<path d="M184.613 43.3382C187.174 43.3382 189.181 42.7438 190.631 41.5548C192.081 40.3658 192.806 38.7326 192.806 36.6551C192.806 35.0782 192.335 33.833 191.393 32.9194C190.462 32.0058 188.879 31.2485 186.643 30.6479C185.12 30.2473 183.984 29.9219 183.234 29.6716C182.498 29.4214 182.008 29.1773 181.766 28.9395C181.536 28.7018 181.422 28.4076 181.422 28.0572C181.422 27.4689 181.693 27.0185 182.237 26.7055C182.794 26.3926 183.525 26.2676 184.431 26.3301C186.352 26.4803 187.405 27.3313 187.586 28.8832L192.626 27.9445C192.372 26.1049 191.502 24.6468 190.015 23.5705C188.529 22.4817 186.632 21.9373 184.323 21.9373C181.954 21.9373 180.062 22.5129 178.648 23.6643C177.235 24.8157 176.527 26.3676 176.527 28.32C176.527 29.8719 177.017 31.0983 177.995 31.9994C178.974 32.8881 180.66 33.6514 183.053 34.2898C184.468 34.6777 185.506 34.9906 186.172 35.2283C186.848 35.4661 187.284 35.7102 187.476 35.9605C187.67 36.1983 187.767 36.5175 187.767 36.9179C187.767 37.5562 187.525 38.0568 187.042 38.4198C186.559 38.7701 185.87 38.9453 184.975 38.9453C183.887 38.9453 182.987 38.6763 182.274 38.1381C181.573 37.6 181.119 36.8554 180.914 35.9042L175.874 36.6926C176.201 38.8077 177.119 40.4472 178.631 41.6111C180.153 42.7625 182.148 43.3382 184.613 43.3382Z" fill="white" fill-opacity="0.8745"/>
<path d="M201.903 43.3757C203.317 43.3757 204.549 43.1316 205.602 42.6436C206.653 42.1555 207.535 41.5047 208.249 40.6912V42.775H212.599V22.5004H207.632V32.7879C207.632 34.0394 207.492 35.0531 207.214 35.8291C206.95 36.5925 206.605 37.1744 206.182 37.5749C205.759 37.9629 205.306 38.2256 204.821 38.3634C204.339 38.501 203.886 38.5699 203.463 38.5699C202.411 38.5699 201.595 38.3258 201.015 37.8377C200.447 37.3496 200.035 36.7427 199.782 36.0168C199.528 35.2908 199.377 34.5713 199.329 33.8579C199.28 33.132 199.256 32.5376 199.256 32.0744V22.5004H194.252V33.8767C194.252 34.2145 194.276 34.7527 194.325 35.4911C194.373 36.2295 194.513 37.0493 194.742 37.9504C194.972 38.8389 195.352 39.6962 195.885 40.5222C196.429 41.3482 197.184 42.0303 198.151 42.5685C199.117 43.1066 200.369 43.3757 201.903 43.3757Z" fill="white" fill-opacity="0.8745"/>
<path d="M215.455 42.775H220.422V30.4976C220.422 29.3338 220.729 28.3889 221.346 27.6629C221.974 26.9245 222.802 26.5553 223.83 26.5553C224.906 26.5553 225.746 26.9309 226.35 27.6818C226.965 28.4202 227.275 29.4589 227.275 30.798V42.775H232.206V30.4976C232.206 29.3338 232.514 28.3889 233.13 27.6629C233.759 26.9245 234.586 26.5553 235.613 26.5553C236.69 26.5553 237.529 26.9309 238.133 27.6818C238.75 28.4202 239.059 29.4589 239.059 30.798V42.775H243.989V29.4463C243.989 27.2312 243.415 25.4416 242.267 24.0773C241.131 22.7007 239.445 22.0123 237.208 22.0123C235.952 22.0123 234.798 22.2939 233.746 22.8571C232.694 23.4204 231.855 24.19 231.226 25.1662C230.719 24.2151 229.994 23.4516 229.051 22.8759C228.108 22.3002 226.936 22.0123 225.534 22.0123C224.349 22.0123 223.262 22.2564 222.271 22.7445C221.279 23.2201 220.457 23.8772 219.805 24.7156V22.5004H215.455V42.775Z" fill="white" fill-opacity="0.8745"/>
<path d="M28.4884 0C12.7547 0 0 13.2076 0 29.5C15.7337 29.5 28.4884 16.2924 28.4884 0Z" fill="#00AE48" fill-opacity="0.0980392"/>
<path d="M27.9842 0.504614C27.7271 16.1299 15.5518 28.7198 0.504149 28.9954C0.761262 13.3701 12.9366 0.780237 27.9842 0.504614Z" stroke="white" stroke-opacity="0.8745"/>
<path d="M28.4883 59C44.222 59 56.9767 45.7924 56.9767 29.5C41.243 29.5 28.4883 42.7076 28.4883 59Z" fill="#00AE48" fill-opacity="0.0980392"/>
<path d="M28.9925 58.4954C29.2496 42.8701 41.4249 30.2802 56.4726 30.0046C56.2155 45.6299 44.0401 58.2198 28.9925 58.4954Z" stroke="white" stroke-opacity="0.8745"/>
<path d="M28.4883 0C44.222 0 56.9767 13.2076 56.9767 29.5C41.243 29.5 28.4883 16.2924 28.4883 0Z" fill="white" fill-opacity="0.8745"/>
<path d="M28.4884 59C12.7547 59 -1.37548e-06 45.7924 0 29.5C15.7337 29.5 28.4884 42.7076 28.4884 59Z" fill="white" fill-opacity="0.8745"/>
</g>
<defs>
<clipPath id="clip0_86_55">
<rect width="245" height="59" fill="white"/>
</clipPath>
</defs>
</svg>
