<svg width="150" height="36" viewBox="0 0 150 36" fill="none" xmlns="http://www.w3.org/2000/svg">
<g clip-path="url(#clip0_59_2)">
<path d="M42.7643 26.1H52.6649V23.1906H45.7833V9.60547H42.7643V26.1Z" fill="#007152" fill-opacity="0.8745"/>
<path d="M58.6145 26.4437C59.8133 26.4437 60.8677 26.1687 61.7779 25.6189C62.6954 25.0615 63.4095 24.294 63.9201 23.3166C64.438 22.3315 64.697 21.1975 64.697 19.9146C64.697 18.6393 64.4417 17.513 63.9312 16.5355C63.4205 15.5504 62.7065 14.7791 61.7889 14.2217C60.8788 13.6642 59.8207 13.3855 58.6145 13.3855C57.4306 13.3855 56.3835 13.6604 55.4734 14.2103C54.5633 14.7601 53.8492 15.5275 53.3312 16.5126C52.8133 17.49 52.5543 18.624 52.5543 19.9146C52.5543 21.1898 52.8059 22.3201 53.3091 23.3051C53.8196 24.2826 54.53 25.05 55.4401 25.6075C56.3503 26.165 57.4084 26.4437 58.6145 26.4437ZM58.6145 23.5343C57.6748 23.5343 56.9608 23.2097 56.4724 22.5606C55.9914 21.9039 55.7509 21.0219 55.7509 19.9146C55.7509 18.8379 55.9803 17.9673 56.4391 17.3029C56.9052 16.631 57.6304 16.2949 58.6145 16.2949C59.5691 16.2949 60.2868 16.6233 60.7678 17.2801C61.2562 17.9368 61.5004 18.8149 61.5004 19.9146C61.5004 20.9761 61.2599 21.8466 60.7789 22.5263C60.3053 23.1982 59.5839 23.5343 58.6145 23.5343Z" fill="#007152" fill-opacity="0.8745"/>
<path d="M70.6674 26.4437C71.2298 26.4437 71.7477 26.3749 72.2213 26.2375C72.7023 26.1001 73.1389 25.9053 73.5311 25.6533V26.9019C73.5459 27.3601 73.4311 27.7418 73.1869 28.0473C72.9502 28.3604 72.632 28.5933 72.2324 28.7461C71.8328 28.9064 71.4073 28.9866 70.956 28.9866C70.5342 28.9866 70.142 28.8911 69.7795 28.7003C69.4243 28.5094 69.1504 28.2306 68.9581 27.8641L66.1611 29.2615C66.6198 30.0633 67.2747 30.7086 68.1257 31.1973C68.9766 31.6937 69.9127 31.9419 70.9338 31.9419C71.8143 31.9419 72.632 31.8197 73.3867 31.5753C74.1415 31.3386 74.7779 30.9759 75.2958 30.4871C75.8212 29.9984 76.1801 29.3761 76.3725 28.6201C76.439 28.3528 76.4834 28.0817 76.5057 27.8067C76.5352 27.5395 76.5501 27.2531 76.5501 26.9477V13.7291H73.9084V14.4164C73.5014 14.088 73.0389 13.836 72.521 13.6604C72.0104 13.4771 71.4444 13.3855 70.8228 13.3855C69.6759 13.3855 68.6769 13.6681 67.826 14.2331C66.975 14.7982 66.3127 15.5733 65.8392 16.5584C65.373 17.5358 65.14 18.6546 65.14 19.9146C65.14 21.1517 65.3693 22.2627 65.8281 23.2479C66.2943 24.2329 66.9417 25.0119 67.7704 25.5846C68.5992 26.1573 69.5649 26.4437 70.6674 26.4437ZM71.1557 23.6717C70.5046 23.6717 69.9719 23.5037 69.5575 23.1677C69.1431 22.8317 68.836 22.3812 68.6363 21.8161C68.4365 21.2433 68.3365 20.6095 68.3365 19.9146C68.3365 19.2273 68.4401 18.6012 68.6473 18.0361C68.8545 17.4633 69.1727 17.009 69.6018 16.6729C70.0384 16.3293 70.5934 16.1575 71.2668 16.1575C72.2139 16.1575 72.8909 16.505 73.2979 17.1999C73.705 17.8871 73.9084 18.7921 73.9084 19.9146C73.9084 21.0371 73.7012 21.9458 73.2869 22.6407C72.8799 23.3281 72.1695 23.6717 71.1557 23.6717Z" fill="#007152" fill-opacity="0.8745"/>
<path d="M83.7208 26.4437C84.9196 26.4437 85.974 26.1687 86.8841 25.6189C87.8015 25.0615 88.5157 24.294 89.0259 23.3166C89.5439 22.3315 89.8029 21.1975 89.8029 19.9146C89.8029 18.6393 89.5483 17.513 89.0372 16.5355C88.5271 15.5504 87.8128 14.7791 86.8952 14.2217C85.9851 13.6642 84.9269 13.3855 83.7208 13.3855C82.5368 13.3855 81.4898 13.6604 80.5797 14.2103C79.6696 14.7601 78.9555 15.5275 78.4375 16.5126C77.9195 17.49 77.6605 18.624 77.6605 19.9146C77.6605 21.1898 77.9121 22.3201 78.4153 23.3051C78.9258 24.2826 79.6363 25.05 80.5464 25.6075C81.4566 26.165 82.5147 26.4437 83.7208 26.4437ZM83.7208 23.5343C82.781 23.5343 82.067 23.2097 81.5786 22.5606C81.0976 21.9039 80.8572 21.0219 80.8572 19.9146C80.8572 18.8379 81.0865 17.9673 81.5454 17.3029C82.0115 16.631 82.7366 16.2949 83.7208 16.2949C84.6754 16.2949 85.3931 16.6233 85.8741 17.2801C86.3624 17.9368 86.6066 18.8149 86.6066 19.9146C86.6066 20.9761 86.3661 21.8466 85.8851 22.5263C85.4116 23.1982 84.6901 23.5343 83.7208 23.5343Z" fill="#007152" fill-opacity="0.8745"/>
<path d="M91.1337 12.0108H94.1529V9.26172H91.1337V12.0108ZM91.1337 26.0999H94.1529V13.729H91.1337V26.0999Z" fill="#007152" fill-opacity="0.8745"/>
<path d="M96.1265 31.5983H99.1675V25.6533C99.5599 25.9053 99.9925 26.1001 100.466 26.2375C100.947 26.3749 101.469 26.4437 102.031 26.4437C103.134 26.4437 104.1 26.1573 104.929 25.5846C105.757 25.0119 106.401 24.2329 106.859 23.2479C107.326 22.2627 107.559 21.1517 107.559 19.9146C107.559 18.6546 107.322 17.5358 106.849 16.5584C106.382 15.5733 105.724 14.7982 104.873 14.2331C104.022 13.6681 103.023 13.3855 101.876 13.3855C101.254 13.3855 100.685 13.4771 100.167 13.6604C99.6558 13.836 99.1971 14.088 98.7907 14.4164V13.7291H96.1265V31.5983ZM101.543 23.6717C100.537 23.6717 99.8268 23.3281 99.4116 22.6407C98.9974 21.9458 98.7907 21.0371 98.7907 19.9146C98.7907 18.7921 98.9939 17.8871 99.4012 17.1999C99.8154 16.505 100.492 16.1575 101.432 16.1575C102.106 16.1575 102.657 16.3293 103.086 16.6729C103.523 17.009 103.844 17.4633 104.051 18.0361C104.259 18.6012 104.363 19.2273 104.363 19.9146C104.363 20.6095 104.262 21.2433 104.063 21.8161C103.863 22.3812 103.556 22.8317 103.142 23.1677C102.727 23.5037 102.194 23.6717 101.543 23.6717Z" fill="#007152" fill-opacity="0.8745"/>
<path d="M113.029 26.4437C114.597 26.4437 115.825 26.081 116.713 25.3555C117.601 24.63 118.045 23.6335 118.045 22.3659C118.045 21.4037 117.756 20.6439 117.18 20.0864C116.609 19.529 115.64 19.0669 114.271 18.7004C113.339 18.456 112.643 18.2575 112.184 18.1047C111.733 17.9521 111.433 17.8031 111.285 17.6581C111.145 17.513 111.075 17.3335 111.075 17.1197C111.075 16.7608 111.241 16.4859 111.574 16.2949C111.915 16.104 112.362 16.0277 112.917 16.0659C114.093 16.1575 114.738 16.6768 114.849 17.6237L117.934 17.0509C117.779 15.9284 117.246 15.0388 116.335 14.3821C115.426 13.7177 114.264 13.3855 112.851 13.3855C111.4 13.3855 110.242 13.7368 109.376 14.4393C108.511 15.1418 108.078 16.0887 108.078 17.2801C108.078 18.227 108.378 18.9753 108.977 19.5251C109.576 20.0674 110.608 20.5331 112.074 20.9226C112.94 21.1593 113.575 21.3502 113.983 21.4953C114.397 21.6404 114.664 21.7893 114.781 21.9421C114.9 22.0871 114.959 22.2819 114.959 22.5263C114.959 22.9157 114.811 23.2211 114.515 23.4426C114.22 23.6564 113.798 23.7633 113.25 23.7633C112.584 23.7633 112.033 23.5991 111.597 23.2707C111.167 22.9424 110.889 22.4881 110.764 21.9077L107.678 22.3887C107.878 23.6793 108.44 24.6797 109.366 25.3899C110.298 26.0924 111.519 26.4437 113.029 26.4437Z" fill="#007152" fill-opacity="0.8745"/>
<path d="M123.614 26.4665C124.48 26.4665 125.234 26.3176 125.879 26.0198C126.522 25.722 127.062 25.3249 127.499 24.8285V26.1H130.162V13.729H127.122V20.0061C127.122 20.7698 127.036 21.3883 126.866 21.8618C126.704 22.3276 126.493 22.6827 126.234 22.927C125.975 23.1638 125.697 23.3241 125.401 23.4081C125.105 23.4921 124.828 23.5341 124.569 23.5341C123.925 23.5341 123.426 23.3852 123.071 23.0874C122.723 22.7896 122.471 22.4192 122.315 21.9763C122.16 21.5334 122.068 21.0943 122.038 20.659C122.008 20.2161 121.994 19.8534 121.994 19.5708V13.729H118.93V20.6705C118.93 20.8766 118.945 21.205 118.974 21.6556C119.004 22.1061 119.09 22.6063 119.23 23.1561C119.37 23.6983 119.603 24.2214 119.929 24.7254C120.262 25.2294 120.725 25.6455 121.317 25.974C121.908 26.3023 122.675 26.4665 123.614 26.4665Z" fill="#007152" fill-opacity="0.8745"/>
<path d="M131.911 26.0999H134.952V18.6086C134.952 17.8985 135.14 17.3219 135.518 16.879C135.903 16.4284 136.409 16.2032 137.039 16.2032C137.697 16.2032 138.212 16.4323 138.582 16.8905C138.958 17.341 139.148 17.9748 139.148 18.7919V26.0999H142.167V18.6086C142.167 17.8985 142.355 17.3219 142.733 16.879C143.117 16.4284 143.624 16.2032 144.253 16.2032C144.912 16.2032 145.426 16.4323 145.796 16.8905C146.173 17.341 146.362 17.9748 146.362 18.7919V26.0999H149.381V17.9672C149.381 16.6155 149.029 15.5236 148.326 14.6912C147.631 13.8512 146.599 13.4312 145.23 13.4312C144.46 13.4312 143.754 13.603 143.11 13.9466C142.466 14.2903 141.952 14.7599 141.567 15.3555C141.256 14.7752 140.812 14.3094 140.235 13.9581C139.658 13.6068 138.94 13.4312 138.082 13.4312C137.356 13.4312 136.691 13.5801 136.084 13.8779C135.477 14.1681 134.974 14.569 134.574 15.0806V13.729H131.911V26.0999Z" fill="#007152" fill-opacity="0.8745"/>
<path d="M17.4419 0C7.80898 0 0 8.05887 0 18C9.63288 18 17.4419 9.94113 17.4419 0Z" fill="#00AE48" fill-opacity="0.0980392"/>
<path d="M16.9349 0.507695C16.6795 9.77742 9.45267 17.2204 0.506985 17.4923C0.762376 8.22258 7.98919 0.779574 16.9349 0.507695Z" stroke="#007152" stroke-opacity="0.8745"/>
<path d="M17.4418 36C27.0747 36 34.8837 27.9411 34.8837 18C25.2508 18 17.4418 26.0589 17.4418 36Z" fill="#00AE48" fill-opacity="0.0980392"/>
<path d="M17.9488 35.4923C18.2042 26.2226 25.431 18.7796 34.3767 18.5077C34.1213 27.7774 26.8945 35.2204 17.9488 35.4923Z" stroke="#007152" stroke-opacity="0.8745"/>
<path d="M17.4418 0C27.0747 0 34.8837 8.05887 34.8837 18C25.2508 18 17.4418 9.94113 17.4418 0Z" fill="#007152" fill-opacity="0.8745"/>
<path d="M17.4419 36C7.80898 36 -8.42132e-07 27.9411 0 18C9.63288 18 17.4419 26.0589 17.4419 36Z" fill="#007152" fill-opacity="0.8745"/>
</g>
<defs>
<clipPath id="clip0_59_2">
<rect width="150" height="36" fill="white"/>
</clipPath>
</defs>
</svg>
