<svg width="34" height="38" viewBox="0 0 34 38" fill="none" xmlns="http://www.w3.org/2000/svg">
<path d="M2 25.8C2 30.6083 2 33.0125 3.64753 34.5062C5.29505 36 7.94669 36 13.25 36H20.75C26.0532 36 28.7049 36 30.3524 34.5062C32 33.0125 32 30.6083 32 25.8V12.2C32 7.39172 32 4.98758 30.3524 3.49379C28.7049 2 26.0532 2 20.75 2H13.25C7.94669 2 5.29505 2 3.64753 3.49379C2 4.98758 2 7.39172 2 12.2V25.8Z" stroke="#007152" stroke-opacity="0.8745" stroke-width="2.5"/>
<path d="M32 13H9.35532C7.60042 13 6.72295 13 6.00304 12.8161C4.04942 12.3171 2.52347 10.8623 2 9" stroke="#007152" stroke-opacity="0.8745" stroke-width="2.5"/>
<path opacity="0.5" d="M8 13L8 36" stroke="#007152" stroke-opacity="0.8745" stroke-width="2.5" stroke-linecap="round"/>
<path opacity="0.5" d="M19 13V6.85266C19 6.37284 19 6.13293 18.8102 6.03595C18.6206 5.93898 18.3612 6.04623 17.8422 6.26089L15.3578 7.28809C15.1822 7.36069 15.0944 7.39708 15 7.39708C14.9056 7.39708 14.8178 7.36069 14.6422 7.28809L12.1578 6.26089C11.6389 6.04623 11.3794 5.93898 11.1897 6.03595C11 6.13293 11 6.37284 11 6.85266V12.2165" stroke="#007152" stroke-opacity="0.8745" stroke-width="2.5" stroke-linecap="round"/>
</svg>
