<svg width="42" height="37" viewBox="0 0 42 37" fill="none" xmlns="http://www.w3.org/2000/svg">
<path d="M21 16C24.866 16 28 12.866 28 9C28 5.13401 24.866 2 21 2C17.134 2 14 5.13401 14 9C14 12.866 17.134 16 21 16Z" stroke="#007152" stroke-opacity="0.8745" stroke-width="2.5"/>
<path opacity="0.5" d="M32 14C34.7615 14 37 12.2091 37 10C37 7.79086 34.7615 6 32 6" stroke="#007152" stroke-opacity="0.8745" stroke-width="2.5" stroke-linecap="round"/>
<path opacity="0.5" d="M11 14C8.23858 14 6 12.2091 6 10C6 7.79086 8.23858 6 11 6" stroke="#007152" stroke-opacity="0.8745" stroke-width="2.5" stroke-linecap="round"/>
<path d="M21.5 35C27.299 35 32 32.0899 32 28.5C32 24.9101 27.299 22 21.5 22C15.701 22 11 24.9101 11 28.5C11 32.0899 15.701 35 21.5 35Z" stroke="#007152" stroke-opacity="0.8745" stroke-width="2.5"/>
<path opacity="0.5" d="M35 32C37.9237 31.3075 40 29.554 40 27.5C40 25.446 37.9237 23.6925 35 23" stroke="#007152" stroke-opacity="0.8745" stroke-width="2.5" stroke-linecap="round"/>
<path opacity="0.5" d="M7 32C4.07625 31.3075 2 29.554 2 27.5C2 25.446 4.07625 23.6925 7 23" stroke="#007152" stroke-opacity="0.8745" stroke-width="2.5" stroke-linecap="round"/>
</svg>
