<svg width="42" height="39" viewBox="0 0 42 39" fill="none" xmlns="http://www.w3.org/2000/svg">
<path d="M3 8.94261L16.0932 2.95388C18.8739 1.68204 21.9899 1.68204 24.7705 2.95388L37.8639 8.94271C40.712 10.2454 40.712 14.7548 37.8639 16.0575L24.7707 22.0461C21.9901 23.318 18.8741 23.318 16.0934 22.0461L6.73437 17.7655" stroke="#007152" stroke-opacity="0.8745" stroke-width="2.5" stroke-linecap="round"/>
<path opacity="0.5" d="M2 25V19.6841C2 17.3085 2 16.1206 2.66064 15.1902C3.32128 14.2599 4.49706 13.792 6.84864 12.8561L9 12" stroke="#007152" stroke-opacity="0.8745" stroke-width="2.5" stroke-linecap="round" stroke-linejoin="round"/>
<path opacity="0.5" d="M34 18V28.2508C34 30.2668 33.029 32.1544 31.3284 33.1312C28.4964 34.7574 23.9637 37 20.5 37C17.0363 37 12.5036 34.7574 9.67171 33.1312C7.97104 32.1544 7 30.2668 7 28.2508V18" stroke="#007152" stroke-opacity="0.8745" stroke-width="2.5" stroke-linecap="round"/>
</svg>
