<svg width="42" height="42" viewBox="0 0 42 42" fill="none" xmlns="http://www.w3.org/2000/svg">
<path d="M39.2571 23.967L39.6926 19.34C40.0346 15.706 40.2056 13.889 39.5839 13.1379C39.2476 12.7316 38.7903 12.4827 38.3014 12.4397C37.3976 12.3604 36.2625 13.6525 33.9924 16.2368C32.8184 17.5733 32.2315 18.2416 31.5765 18.3451C31.2138 18.4023 30.8441 18.3434 30.5089 18.1749C29.9044 17.8705 29.5012 17.0444 28.6948 15.3922L24.4449 6.68321C22.9213 3.56108 22.1594 2 21 2C19.8406 2 19.0787 3.56108 17.5551 6.68323L13.3051 15.3922C12.4988 17.0444 12.0957 17.8705 11.491 18.1749C11.1559 18.3434 10.7862 18.4023 10.4234 18.3451C9.76857 18.2416 9.18156 17.5733 8.00755 16.2368C5.73745 13.6525 4.60239 12.3604 3.69858 12.4397C3.20965 12.4827 2.75236 12.7316 2.41608 13.1379C1.79442 13.889 1.96542 15.706 2.30743 19.34L2.7429 23.967C3.46043 31.591 3.81921 35.4029 6.06617 37.7014C8.31315 40 11.6808 40 18.4162 40H23.5838C30.3191 40 33.6869 40 35.9338 37.7014C38.1808 35.4029 38.5395 31.591 39.2571 23.967Z" stroke="#007152" stroke-opacity="0.8745" stroke-width="2.5"/>
<path opacity="0.5" d="M16 32H27" stroke="#007152" stroke-opacity="0.8745" stroke-width="2.5" stroke-linecap="round"/>
</svg>
